<?xml version="1.0" standalone="no"?><!DOCTYPE svg PUBLIC "-//W3C//DTD SVG 1.1//EN"
        "http://www.w3.org/Graphics/SVG/1.1/DTD/svg11.dtd">
<svg t="1704962010657" class="icon" viewBox="0 0 1024 1024" version="1.1" xmlns="http://www.w3.org/2000/svg" p-id="6469"
     xmlns:xlink="http://www.w3.org/1999/xlink" width="15" height="15">
 <path d="M623.637333 352.853333c49.344-71.68 146.133333-96.128 225.173334-56.853333 79.061333 39.253333 115.328 129.792 84.437333 210.645333 11.093333 20.821333 54.08 102.101333 67.114667 136.64 4.522667 11.989333 2.282667 25.386667-5.909334 35.370667l-7.189333 8.682667a55.061333 55.061333 0 0 1-35.136 19.52c-20.864 2.901333-59.242667 9.728-98.901333 17.066666l-18.346667 3.413334c-36.608 6.869333-72.213333 13.738667-94.016 18.005333h-1.578667c-12.48 2.432-50.218667 14.08-89.493333 26.538667l-11.797333 3.733333-28.970667 9.237333c-37.482667 11.968-69.845333 22.293333-80.298667 24.810667a153.514667 153.514667 0 0 1-34.645333 3.989333 94.250667 94.250667 0 0 1-28.181333-3.861333 256.704 256.704 0 0 1-26.752 33.258667 394.496 394.496 0 0 1-37.248 35.2c-7.466667 6.549333-16.085333 11.733333-25.472 15.296-9.664 3.434667-19.882667 5.12-30.165334 4.970666a119.509333 119.509333 0 0 1-28.501333-3.797333 141.952 141.952 0 0 1-6.698667-1.834667l-1.706666-0.512h-0.832l-1.578667-0.64a31.402667 31.402667 0 0 1-18.581333-20.181333 92.053333 92.053333 0 0 1-3.626667-12.565333l-5.589333 8.362666-5.674667 8.448-5.653333 8.405334c-18.794667 27.84-36.309333 53.205333-40.106667 56.896-0.384 0.426667-0.981333 1.472-1.706667 2.581333-6.826667 10.090667-20.224 30.848-61.162666 36.714667-4.416 0.64-8.874667 0.938667-13.333334 0.938666-38.613333 0-62.165333-24.277333-70.442666-32.896l-1.493334-1.472c-10.709333-10.325333-24.533333-41.045333-7.744-65.28 7.509333-10.026667 16-19.349333 25.301334-27.861333 5.973333-5.290667 11.349333-11.178667 16.042666-17.578667l1.386667-2.709333 3.626667-7.253333c13.866667-27.904 50.517333-102.357333 63.317333-128.341334l-19.904-26.154666a8751.146667 8751.146667 0 0 1-59.093333-78.229334h0.042666l-3.072-4.053333v-4.736c0.064-2.709333 0.234667-4.117333 0.426667-6.293333 0.170667-2.154667 0.725333-3.989333 0.725333-5.866667 0.64-3.626667 1.450667-7.253333 2.410667-10.837333 2.026667-7.210667 4.821333-14.186667 8.32-20.821334 7.253333-13.632 17.92-25.258667 31.04-33.792l4.906667-3.157333 5.162666-2.581333 5.205334-2.517334c1.749333-0.768 3.562667-1.344 5.312-2.005333a76.010667 76.010667 0 0 1 23.786666-5.269333 130.133333 130.133333 0 0 1 44.245334 7.104c26.005333 8.938667 50.88 20.736 74.133333 35.178666a697.962667 697.962667 0 0 1 57.045333 38.122667c10.666667-6.869333 21.952-12.778667 33.728-17.6a364.608 364.608 0 0 1 46.506667-15.829333 554.346667 554.346667 0 0 1 47.189333-10.901334l-1.088-4.778666c-11.562667-56.384 14.826667-133.034667 16-136.384l1.450667-4.053334 3.434667-2.645333c28.437333-22.101333 90.858667-26.218667 114.218666-26.965333zM201.450667 724.821333c-19.413333 39.424-57.130667 115.904-61.653334 124.757334-5.909333 9.344-13.226667 17.792-21.717333 25.045333a177.706667 177.706667 0 0 0-21.504 23.466667c-6.698667 9.728 1.322667 25.493333 4.16 28.437333 0.618667 0.512 1.28 1.216 2.133333 2.112 12.309333 12.714667 30.357333 26.858667 57.514667 22.976 27.157333-3.861333 34.538667-15.189333 39.893333-23.466667 1.706667-2.773333 3.754667-5.333333 6.037334-7.68 3.882667-4.352 29.696-42.218667 56.170666-81.664l6.101334-9.109333 6.08-9.088-1.941334-2.709333-7.253333-9.6-14.848-19.669334-29.994667-38.570666zM607.146667 383.061333c-27.157333 2.133333-59.392 7.466667-75.456 17.194667-5.376 17.066667-23.530667 80.042667-12.437334 121.685333l-6.037333 1.536c7.893333-1.28 15.829333-2.346667 23.722667-3.285333-15.317333 4.224-30.592 9.152-45.504 14.485333-14.933333 5.333333-29.653333 11.136-43.946667 17.578667-14.208 6.250667-27.946667 13.44-41.109333 21.546667a151.957333 151.957333 0 0 0-33.813334 27.136l-7.786666 9.045333-12.373334-7.936-12.224-9.066667a673.514667 673.514667 0 0 0-50.986666-33.493333 340.672 340.672 0 0 0-67.712-32.256 100.053333 100.053333 0 0 0-33.386667-5.866667 43.285333 43.285333 0 0 0-14.549333 3.328c-2.56 0.810667-5.056 1.813333-7.424 3.050667l-3.690667 1.770667-3.306667 2.218666A62.4 62.4 0 0 0 138.026667 554.666667a75.477333 75.477333 0 0 0-7.786667 22.826666l-0.490667 2.858667c19.285333 24.170667 38.357333 48.448 57.237334 72.853333 20.352 25.856 40.554667 51.541333 60.373333 77.589334l30.058667 38.869333 14.848 19.648 7.424 10.026667 3.861333 5.461333c1.642667 2.56 3.050667 5.248 4.224 8.042667 3.285333 8.789333 5.482667 17.92 6.570667 27.2 0.810667 6.997333 2.218667 13.909333 4.245333 20.650666 0.384 0.981333 0.810667 1.941333 1.322667 2.88l1.066666 0.298667c1.770667 0.576 3.52 1.045333 5.269334 1.514667 6.784 1.856 13.781333 2.88 20.821333 3.114666 6.464 0.256 12.928-0.64 19.072-2.645333a51.2 51.2 0 0 0 16.853333-9.92c12.373333-9.813333 24.042667-20.416 34.986667-31.722667a211.242667 211.242667 0 0 0 28.8-35.2c1.578667-2.56 2.858667-5.312 3.882667-8.128a2.688 2.688 0 0 0 0.362666-1.408 5.973333 5.973333 0 0 1 0-1.130666 0.789333 0.789333 0 0 1 0-0.512l-0.426666-1.770667a97.770667 97.770667 0 0 0-8.938667-19.178667 437.034667 437.034667 0 0 0-57.941333-75.306666 781.269333 781.269333 0 0 0-69.973334-67.434667 152.256 152.256 0 0 1 46.186667 20.117333 255.146667 255.146667 0 0 1 39.658667 31.552c12.032 11.733333 23.424 24.085333 34.112 36.992 10.986667 13.013333 21.077333 26.730667 30.165333 41.066667 2.24 3.690667 4.416 7.445333 6.528 11.370667 2.261333 4.266667 4.16 8.704 5.674667 13.248 0.426667 1.408 0.533333 2.346667 1.152 4.181333a14.570667 14.570667 0 0 1 0.597333 5.44c-0.128 1.6-0.490667 3.178667-0.490667 4.757333 14.506667 2.474667 29.376 1.984 43.648-1.472 9.365333-2.282667 42.794667-12.949333 78.122667-24.213333 54.016-16.96 115.178667-36.842667 133.824-40.405333h1.493333c49.386667-9.450667 168.917333-32.896 213.12-38.762667 6.229333-0.853333 11.925333-4.010667 15.872-8.810667l7.104-8.682666h0.256a7.168 7.168 0 0 0 1.024-7.253334c-9.792-25.877333-38.698667-82.176-55.530666-114.325333a173.589333 173.589333 0 0 1-54.336 52.096c12.330667 4.970667 23.808 11.733333 34.048 20.053333a178.624 178.624 0 0 1-8.490667-0.938666l-7.338667-0.981334a593.834667 593.834667 0 0 0-44.842666-4.778666l-91.328 10.794666a251.093333 251.093333 0 0 0-44.970667 19.712 331.306667 331.306667 0 0 0-50.410667-64.853333 186.090667 186.090667 0 0 0-27.349333-21.888l-10.368-6.613333c-16.725333-9.984-30.976-16.085333-37.546667-21.248a110.848 110.848 0 0 1 29.141334 1.877333 161.984 161.984 0 0 1-5.376-21.632c-1.493333-8.789333-2.410667-17.664-2.837334-26.581333a196.309333 196.309333 0 0 1 0-24.554667v-2.538667c0-21.866667 4.352-43.541333 12.864-63.786666z m162.197333-76.821333v0.234667c-58.944 0.064-111.957333 34.816-134.101333 87.893333-22.122667 53.077333-8.96 113.877333 33.28 153.813333 8.234667 4.608 16.128 9.749333 23.68 15.36 3.029333 2.346667 6.101333 4.8 9.066666 7.253334 6.954667 3.690667 14.250667 6.784 21.781334 9.216h1.493333c8.469333-1.408 16.917333-2.709333 25.493333-3.349334 17.066667-1.6 34.24-1.6 51.306667 0 6.037333 0.597333 12.074667 1.344 18.112 2.410667 65.877333-23.594667 104.874667-89.664 92.544-156.8-12.330667-67.136-72.448-116.053333-142.656-116.032zM485.973333 213.333333L533.333333 275.541333l-71.104 33.194667 43.477334 33.194667-39.552 20.736L426.666667 308.736l53.333333-31.253333-37.525333-22.677334L485.952 213.333333z m-194.901333-128l109.930667 56.042667-80.469334 102.186667L405.333333 259.84 362.176 320l-93.034667-49.728 56.170667-86.08L256 178.986667 291.050667 85.333333zM45.162667 64l171.136 14.165333-58.474667 167.808L277.333333 223.317333 248.448 320l-145.834667-14.933333 33.813334-135.402667L42.666667 198.208 45.162667 64z"
       fill="#ffffff" p-id="6470"></path>
</svg>